<mxfile host="app.diagrams.net" modified="2022-02-11T20:05:40.236Z" agent="5.0 (Windows NT 10.0; Win64; x64) AppleWebKit/537.36 (KHTML, like Gecko) Chrome/98.0.4758.82 Safari/537.36" etag="UpM4AalYAaDs4MtXrMsO" version="16.5.2" type="github">
  <diagram id="cnkA1nlLj9MmgEO4_5GL" name="Page-1">
    <mxGraphModel dx="1327" dy="802" grid="1" gridSize="10" guides="1" tooltips="1" connect="1" arrows="1" fold="1" page="1" pageScale="1" pageWidth="827" pageHeight="1169" math="0" shadow="0">
      <root>
        <mxCell id="0" />
        <mxCell id="1" parent="0" />
        <mxCell id="Ux6ZveKq-WMeWvWdy23N-13" style="edgeStyle=orthogonalEdgeStyle;rounded=0;orthogonalLoop=1;jettySize=auto;html=1;endArrow=none;endFill=0;" edge="1" parent="1" source="Ux6ZveKq-WMeWvWdy23N-1" target="Ux6ZveKq-WMeWvWdy23N-7">
          <mxGeometry relative="1" as="geometry">
            <Array as="points">
              <mxPoint x="155" y="140" />
              <mxPoint x="540" y="140" />
            </Array>
          </mxGeometry>
        </mxCell>
        <mxCell id="Ux6ZveKq-WMeWvWdy23N-14" style="edgeStyle=orthogonalEdgeStyle;rounded=0;orthogonalLoop=1;jettySize=auto;html=1;endArrow=none;endFill=0;" edge="1" parent="1" source="Ux6ZveKq-WMeWvWdy23N-1" target="Ux6ZveKq-WMeWvWdy23N-4">
          <mxGeometry relative="1" as="geometry" />
        </mxCell>
        <mxCell id="Ux6ZveKq-WMeWvWdy23N-1" value="Użytkownik niezalogowany" style="shape=umlActor;verticalLabelPosition=bottom;verticalAlign=top;html=1;outlineConnect=0;" vertex="1" parent="1">
          <mxGeometry x="140" y="30" width="30" height="60" as="geometry" />
        </mxCell>
        <mxCell id="Ux6ZveKq-WMeWvWdy23N-110" style="edgeStyle=orthogonalEdgeStyle;rounded=0;orthogonalLoop=1;jettySize=auto;html=1;exitX=1;exitY=0.3333333333333333;exitDx=0;exitDy=0;exitPerimeter=0;endArrow=none;endFill=0;" edge="1" parent="1" source="Ux6ZveKq-WMeWvWdy23N-2" target="Ux6ZveKq-WMeWvWdy23N-34">
          <mxGeometry relative="1" as="geometry">
            <mxPoint x="210" y="370" as="targetPoint" />
            <Array as="points">
              <mxPoint x="190" y="370" />
              <mxPoint x="190" y="350" />
            </Array>
          </mxGeometry>
        </mxCell>
        <mxCell id="Ux6ZveKq-WMeWvWdy23N-111" style="edgeStyle=orthogonalEdgeStyle;rounded=0;orthogonalLoop=1;jettySize=auto;html=1;exitX=1;exitY=0.3333333333333333;exitDx=0;exitDy=0;exitPerimeter=0;endArrow=none;endFill=0;" edge="1" parent="1" source="Ux6ZveKq-WMeWvWdy23N-2" target="Ux6ZveKq-WMeWvWdy23N-16">
          <mxGeometry relative="1" as="geometry">
            <mxPoint x="210" y="260" as="targetPoint" />
            <Array as="points">
              <mxPoint x="190" y="370" />
              <mxPoint x="190" y="260" />
            </Array>
          </mxGeometry>
        </mxCell>
        <mxCell id="Ux6ZveKq-WMeWvWdy23N-112" style="edgeStyle=orthogonalEdgeStyle;rounded=0;orthogonalLoop=1;jettySize=auto;html=1;exitX=1;exitY=0.3333333333333333;exitDx=0;exitDy=0;exitPerimeter=0;endArrow=none;endFill=0;" edge="1" parent="1" source="Ux6ZveKq-WMeWvWdy23N-2" target="Ux6ZveKq-WMeWvWdy23N-22">
          <mxGeometry relative="1" as="geometry">
            <Array as="points">
              <mxPoint x="130" y="370" />
              <mxPoint x="130" y="190" />
            </Array>
          </mxGeometry>
        </mxCell>
        <mxCell id="Ux6ZveKq-WMeWvWdy23N-113" style="edgeStyle=orthogonalEdgeStyle;rounded=0;orthogonalLoop=1;jettySize=auto;html=1;exitX=1;exitY=0.3333333333333333;exitDx=0;exitDy=0;exitPerimeter=0;entryX=1;entryY=0.3333333333333333;entryDx=0;entryDy=0;entryPerimeter=0;endArrow=none;endFill=0;" edge="1" parent="1" source="Ux6ZveKq-WMeWvWdy23N-2" target="Ux6ZveKq-WMeWvWdy23N-3">
          <mxGeometry relative="1" as="geometry">
            <Array as="points">
              <mxPoint x="190" y="370" />
              <mxPoint x="190" y="660" />
            </Array>
          </mxGeometry>
        </mxCell>
        <mxCell id="Ux6ZveKq-WMeWvWdy23N-2" value="Użytkownik zalogowany" style="shape=umlActor;verticalLabelPosition=bottom;verticalAlign=top;html=1;outlineConnect=0;" vertex="1" parent="1">
          <mxGeometry x="140" y="350" width="30" height="60" as="geometry" />
        </mxCell>
        <mxCell id="Ux6ZveKq-WMeWvWdy23N-3" value="Specialista" style="shape=umlActor;verticalLabelPosition=bottom;verticalAlign=top;html=1;outlineConnect=0;" vertex="1" parent="1">
          <mxGeometry x="140" y="640" width="30" height="60" as="geometry" />
        </mxCell>
        <mxCell id="Ux6ZveKq-WMeWvWdy23N-6" value="" style="group" vertex="1" connectable="0" parent="1">
          <mxGeometry x="320" y="20" width="120" height="80" as="geometry" />
        </mxCell>
        <mxCell id="Ux6ZveKq-WMeWvWdy23N-4" value="" style="ellipse;whiteSpace=wrap;html=1;" vertex="1" parent="Ux6ZveKq-WMeWvWdy23N-6">
          <mxGeometry width="120" height="80" as="geometry" />
        </mxCell>
        <mxCell id="Ux6ZveKq-WMeWvWdy23N-5" value="Rejestracja" style="text;html=1;strokeColor=none;fillColor=none;align=center;verticalAlign=middle;whiteSpace=wrap;rounded=0;" vertex="1" parent="Ux6ZveKq-WMeWvWdy23N-6">
          <mxGeometry x="30" y="25" width="60" height="30" as="geometry" />
        </mxCell>
        <mxCell id="Ux6ZveKq-WMeWvWdy23N-10" value="" style="group" vertex="1" connectable="0" parent="1">
          <mxGeometry x="480" y="20" width="120" height="80" as="geometry" />
        </mxCell>
        <mxCell id="Ux6ZveKq-WMeWvWdy23N-7" value="" style="ellipse;whiteSpace=wrap;html=1;" vertex="1" parent="Ux6ZveKq-WMeWvWdy23N-10">
          <mxGeometry width="120" height="80" as="geometry" />
        </mxCell>
        <mxCell id="Ux6ZveKq-WMeWvWdy23N-9" value="" style="group" vertex="1" connectable="0" parent="Ux6ZveKq-WMeWvWdy23N-10">
          <mxGeometry width="120" height="80" as="geometry" />
        </mxCell>
        <mxCell id="Ux6ZveKq-WMeWvWdy23N-8" value="Logowanie" style="text;html=1;strokeColor=none;fillColor=none;align=center;verticalAlign=middle;whiteSpace=wrap;rounded=0;" vertex="1" parent="Ux6ZveKq-WMeWvWdy23N-9">
          <mxGeometry x="30" y="25" width="60" height="30" as="geometry" />
        </mxCell>
        <mxCell id="Ux6ZveKq-WMeWvWdy23N-18" value="" style="group" vertex="1" connectable="0" parent="1">
          <mxGeometry x="310" y="220" width="120" height="80" as="geometry" />
        </mxCell>
        <mxCell id="Ux6ZveKq-WMeWvWdy23N-16" value="" style="ellipse;whiteSpace=wrap;html=1;" vertex="1" parent="Ux6ZveKq-WMeWvWdy23N-18">
          <mxGeometry width="120" height="80" as="geometry" />
        </mxCell>
        <mxCell id="Ux6ZveKq-WMeWvWdy23N-17" value="Zgłoszenie awarii" style="text;html=1;strokeColor=none;fillColor=none;align=center;verticalAlign=middle;whiteSpace=wrap;rounded=0;" vertex="1" parent="Ux6ZveKq-WMeWvWdy23N-18">
          <mxGeometry x="30" y="25" width="60" height="30" as="geometry" />
        </mxCell>
        <mxCell id="Ux6ZveKq-WMeWvWdy23N-21" value="" style="group" vertex="1" connectable="0" parent="1">
          <mxGeometry x="240" y="480" width="120" height="80" as="geometry" />
        </mxCell>
        <mxCell id="Ux6ZveKq-WMeWvWdy23N-19" value="" style="ellipse;whiteSpace=wrap;html=1;" vertex="1" parent="Ux6ZveKq-WMeWvWdy23N-21">
          <mxGeometry width="120" height="80" as="geometry" />
        </mxCell>
        <mxCell id="Ux6ZveKq-WMeWvWdy23N-20" value="Przegladanie specialistów" style="text;html=1;strokeColor=none;fillColor=none;align=center;verticalAlign=middle;whiteSpace=wrap;rounded=0;" vertex="1" parent="Ux6ZveKq-WMeWvWdy23N-21">
          <mxGeometry x="30" y="25" width="60" height="30" as="geometry" />
        </mxCell>
        <mxCell id="Ux6ZveKq-WMeWvWdy23N-24" value="" style="group" vertex="1" connectable="0" parent="1">
          <mxGeometry x="230" y="150" width="120" height="80" as="geometry" />
        </mxCell>
        <mxCell id="Ux6ZveKq-WMeWvWdy23N-22" value="" style="ellipse;whiteSpace=wrap;html=1;" vertex="1" parent="Ux6ZveKq-WMeWvWdy23N-24">
          <mxGeometry width="120" height="80" as="geometry" />
        </mxCell>
        <mxCell id="Ux6ZveKq-WMeWvWdy23N-23" value="Stworzenie konta specialisty" style="text;html=1;strokeColor=none;fillColor=none;align=center;verticalAlign=middle;whiteSpace=wrap;rounded=0;" vertex="1" parent="Ux6ZveKq-WMeWvWdy23N-24">
          <mxGeometry x="30" y="25" width="60" height="30" as="geometry" />
        </mxCell>
        <mxCell id="Ux6ZveKq-WMeWvWdy23N-33" value="" style="group" vertex="1" connectable="0" parent="1">
          <mxGeometry x="630" y="470" width="120" height="80" as="geometry" />
        </mxCell>
        <mxCell id="Ux6ZveKq-WMeWvWdy23N-31" value="" style="ellipse;whiteSpace=wrap;html=1;" vertex="1" parent="Ux6ZveKq-WMeWvWdy23N-33">
          <mxGeometry width="120" height="80" as="geometry" />
        </mxCell>
        <mxCell id="Ux6ZveKq-WMeWvWdy23N-32" value="Wyświetlenie detali specialisty" style="text;html=1;strokeColor=none;fillColor=none;align=center;verticalAlign=middle;whiteSpace=wrap;rounded=0;" vertex="1" parent="Ux6ZveKq-WMeWvWdy23N-33">
          <mxGeometry x="30" y="25" width="60" height="30" as="geometry" />
        </mxCell>
        <mxCell id="Ux6ZveKq-WMeWvWdy23N-36" value="" style="group" vertex="1" connectable="0" parent="1">
          <mxGeometry x="220" y="300" width="140" height="100" as="geometry" />
        </mxCell>
        <mxCell id="Ux6ZveKq-WMeWvWdy23N-34" value="" style="ellipse;whiteSpace=wrap;html=1;" vertex="1" parent="Ux6ZveKq-WMeWvWdy23N-36">
          <mxGeometry width="140" height="100" as="geometry" />
        </mxCell>
        <mxCell id="Ux6ZveKq-WMeWvWdy23N-35" value="Przeglądanie zgłoszeń utowrzonych przez uzytkownika" style="text;html=1;strokeColor=none;fillColor=none;align=center;verticalAlign=middle;whiteSpace=wrap;rounded=0;" vertex="1" parent="Ux6ZveKq-WMeWvWdy23N-36">
          <mxGeometry x="40" y="35" width="60" height="30" as="geometry" />
        </mxCell>
        <mxCell id="Ux6ZveKq-WMeWvWdy23N-42" value="`" style="group" vertex="1" connectable="0" parent="1">
          <mxGeometry x="440" y="250" width="120" height="80" as="geometry" />
        </mxCell>
        <mxCell id="Ux6ZveKq-WMeWvWdy23N-37" value="" style="ellipse;whiteSpace=wrap;html=1;" vertex="1" parent="Ux6ZveKq-WMeWvWdy23N-42">
          <mxGeometry width="120" height="80" as="geometry" />
        </mxCell>
        <mxCell id="Ux6ZveKq-WMeWvWdy23N-38" value="Wyświetlenie datali zgloszenia użytkownika" style="text;html=1;strokeColor=none;fillColor=none;align=center;verticalAlign=middle;whiteSpace=wrap;rounded=0;" vertex="1" parent="Ux6ZveKq-WMeWvWdy23N-42">
          <mxGeometry x="30" y="25" width="60" height="30" as="geometry" />
        </mxCell>
        <mxCell id="Ux6ZveKq-WMeWvWdy23N-52" value="" style="group" vertex="1" connectable="0" parent="1">
          <mxGeometry x="440" y="150" width="120" height="80" as="geometry" />
        </mxCell>
        <mxCell id="Ux6ZveKq-WMeWvWdy23N-49" value="" style="ellipse;whiteSpace=wrap;html=1;" vertex="1" parent="Ux6ZveKq-WMeWvWdy23N-52">
          <mxGeometry width="120" height="80" as="geometry" />
        </mxCell>
        <mxCell id="Ux6ZveKq-WMeWvWdy23N-51" value="Usunięcie zgłoszenia" style="text;html=1;strokeColor=none;fillColor=none;align=center;verticalAlign=middle;whiteSpace=wrap;rounded=0;" vertex="1" parent="Ux6ZveKq-WMeWvWdy23N-52">
          <mxGeometry x="30" y="25" width="60" height="30" as="geometry" />
        </mxCell>
        <mxCell id="Ux6ZveKq-WMeWvWdy23N-53" value="Wyświetlenia danych konta" style="ellipse;whiteSpace=wrap;html=1;" vertex="1" parent="1">
          <mxGeometry x="350" y="390" width="120" height="80" as="geometry" />
        </mxCell>
        <mxCell id="Ux6ZveKq-WMeWvWdy23N-56" value="" style="group" vertex="1" connectable="0" parent="1">
          <mxGeometry x="520" y="340" width="120" height="80" as="geometry" />
        </mxCell>
        <mxCell id="Ux6ZveKq-WMeWvWdy23N-54" value="" style="ellipse;whiteSpace=wrap;html=1;" vertex="1" parent="Ux6ZveKq-WMeWvWdy23N-56">
          <mxGeometry width="120" height="80" as="geometry" />
        </mxCell>
        <mxCell id="Ux6ZveKq-WMeWvWdy23N-55" value="Edycja danych konta" style="text;html=1;strokeColor=none;fillColor=none;align=center;verticalAlign=middle;whiteSpace=wrap;rounded=0;" vertex="1" parent="Ux6ZveKq-WMeWvWdy23N-56">
          <mxGeometry x="30" y="25" width="60" height="30" as="geometry" />
        </mxCell>
        <mxCell id="Ux6ZveKq-WMeWvWdy23N-62" value="" style="endArrow=classic;html=1;rounded=0;entryX=0;entryY=0.625;entryDx=0;entryDy=0;entryPerimeter=0;dashed=1;" edge="1" parent="1" source="Ux6ZveKq-WMeWvWdy23N-19" target="Ux6ZveKq-WMeWvWdy23N-31">
          <mxGeometry relative="1" as="geometry">
            <mxPoint x="-100" y="40" as="sourcePoint" />
            <mxPoint x="460" y="290" as="targetPoint" />
          </mxGeometry>
        </mxCell>
        <mxCell id="Ux6ZveKq-WMeWvWdy23N-63" value="&amp;lt;&amp;lt;extend&amp;gt;&amp;gt;" style="edgeLabel;resizable=0;html=1;align=center;verticalAlign=middle;" connectable="0" vertex="1" parent="Ux6ZveKq-WMeWvWdy23N-62">
          <mxGeometry relative="1" as="geometry" />
        </mxCell>
        <mxCell id="Ux6ZveKq-WMeWvWdy23N-66" value="" style="endArrow=classic;html=1;rounded=0;entryX=0;entryY=0.5;entryDx=0;entryDy=0;dashed=1;" edge="1" parent="1" source="Ux6ZveKq-WMeWvWdy23N-31" target="Ux6ZveKq-WMeWvWdy23N-25">
          <mxGeometry relative="1" as="geometry">
            <mxPoint x="550" y="290" as="sourcePoint" />
            <mxPoint x="530" y="260" as="targetPoint" />
          </mxGeometry>
        </mxCell>
        <mxCell id="Ux6ZveKq-WMeWvWdy23N-67" value="&amp;lt;&amp;lt;extend&amp;gt;&amp;gt;" style="edgeLabel;resizable=0;html=1;align=center;verticalAlign=middle;" connectable="0" vertex="1" parent="Ux6ZveKq-WMeWvWdy23N-66">
          <mxGeometry relative="1" as="geometry" />
        </mxCell>
        <mxCell id="Ux6ZveKq-WMeWvWdy23N-68" value="" style="group" vertex="1" connectable="0" parent="1">
          <mxGeometry x="850" y="470" width="120" height="80" as="geometry" />
        </mxCell>
        <mxCell id="Ux6ZveKq-WMeWvWdy23N-25" value="" style="ellipse;whiteSpace=wrap;html=1;" vertex="1" parent="Ux6ZveKq-WMeWvWdy23N-68">
          <mxGeometry width="120" height="80" as="geometry" />
        </mxCell>
        <mxCell id="Ux6ZveKq-WMeWvWdy23N-26" value="Kontakt" style="text;html=1;strokeColor=none;fillColor=none;align=center;verticalAlign=middle;whiteSpace=wrap;rounded=0;" vertex="1" parent="Ux6ZveKq-WMeWvWdy23N-68">
          <mxGeometry x="30" y="25" width="60" height="30" as="geometry" />
        </mxCell>
        <mxCell id="Ux6ZveKq-WMeWvWdy23N-70" value="" style="endArrow=classic;html=1;rounded=0;dashed=1;" edge="1" parent="1" source="Ux6ZveKq-WMeWvWdy23N-39" target="Ux6ZveKq-WMeWvWdy23N-31">
          <mxGeometry relative="1" as="geometry">
            <mxPoint x="510" y="380" as="sourcePoint" />
            <mxPoint x="590" y="340" as="targetPoint" />
          </mxGeometry>
        </mxCell>
        <mxCell id="Ux6ZveKq-WMeWvWdy23N-71" value="&amp;lt;&amp;lt;extend&amp;gt;&amp;gt;" style="edgeLabel;resizable=0;html=1;align=center;verticalAlign=middle;" connectable="0" vertex="1" parent="Ux6ZveKq-WMeWvWdy23N-70">
          <mxGeometry relative="1" as="geometry" />
        </mxCell>
        <mxCell id="Ux6ZveKq-WMeWvWdy23N-72" value="" style="endArrow=classic;html=1;rounded=0;dashed=1;" edge="1" parent="1" source="Ux6ZveKq-WMeWvWdy23N-34" target="Ux6ZveKq-WMeWvWdy23N-37">
          <mxGeometry relative="1" as="geometry">
            <mxPoint x="386.7906112907144" y="317.093042888474" as="sourcePoint" />
            <mxPoint x="550" y="280" as="targetPoint" />
          </mxGeometry>
        </mxCell>
        <mxCell id="Ux6ZveKq-WMeWvWdy23N-73" value="&amp;lt;&amp;lt;extend&amp;gt;&amp;gt;" style="edgeLabel;resizable=0;html=1;align=center;verticalAlign=middle;" connectable="0" vertex="1" parent="Ux6ZveKq-WMeWvWdy23N-72">
          <mxGeometry relative="1" as="geometry" />
        </mxCell>
        <mxCell id="Ux6ZveKq-WMeWvWdy23N-74" value="" style="endArrow=classic;html=1;rounded=0;entryX=0.033;entryY=0.66;entryDx=0;entryDy=0;dashed=1;entryPerimeter=0;" edge="1" parent="1" source="Ux6ZveKq-WMeWvWdy23N-37" target="Ux6ZveKq-WMeWvWdy23N-39">
          <mxGeometry relative="1" as="geometry">
            <mxPoint x="396.7906112907144" y="327.093042888474" as="sourcePoint" />
            <mxPoint x="560" y="290" as="targetPoint" />
          </mxGeometry>
        </mxCell>
        <mxCell id="Ux6ZveKq-WMeWvWdy23N-75" value="&amp;lt;&amp;lt;extend&amp;gt;&amp;gt;" style="edgeLabel;resizable=0;html=1;align=center;verticalAlign=middle;" connectable="0" vertex="1" parent="Ux6ZveKq-WMeWvWdy23N-74">
          <mxGeometry relative="1" as="geometry" />
        </mxCell>
        <mxCell id="Ux6ZveKq-WMeWvWdy23N-77" value="" style="endArrow=classic;html=1;rounded=0;dashed=1;" edge="1" parent="1" source="Ux6ZveKq-WMeWvWdy23N-39" target="Ux6ZveKq-WMeWvWdy23N-43">
          <mxGeometry relative="1" as="geometry">
            <mxPoint x="406.7906112907144" y="327.093042888474" as="sourcePoint" />
            <mxPoint x="570" y="290" as="targetPoint" />
          </mxGeometry>
        </mxCell>
        <mxCell id="Ux6ZveKq-WMeWvWdy23N-78" value="&amp;lt;&amp;lt;extend&amp;gt;&amp;gt;" style="edgeLabel;resizable=0;html=1;align=center;verticalAlign=middle;" connectable="0" vertex="1" parent="Ux6ZveKq-WMeWvWdy23N-77">
          <mxGeometry relative="1" as="geometry" />
        </mxCell>
        <mxCell id="Ux6ZveKq-WMeWvWdy23N-79" value="" style="group" vertex="1" connectable="0" parent="1">
          <mxGeometry x="850" y="190" width="120" height="80" as="geometry" />
        </mxCell>
        <mxCell id="Ux6ZveKq-WMeWvWdy23N-43" value="" style="ellipse;whiteSpace=wrap;html=1;" vertex="1" parent="Ux6ZveKq-WMeWvWdy23N-79">
          <mxGeometry width="120" height="80" as="geometry" />
        </mxCell>
        <mxCell id="Ux6ZveKq-WMeWvWdy23N-48" value="Wybór specialisty" style="text;html=1;strokeColor=none;fillColor=none;align=center;verticalAlign=middle;whiteSpace=wrap;rounded=0;" vertex="1" parent="Ux6ZveKq-WMeWvWdy23N-79">
          <mxGeometry x="30" y="25" width="60" height="30" as="geometry" />
        </mxCell>
        <mxCell id="Ux6ZveKq-WMeWvWdy23N-81" value="" style="endArrow=classic;html=1;rounded=0;dashed=1;" edge="1" parent="1" source="Ux6ZveKq-WMeWvWdy23N-37" target="Ux6ZveKq-WMeWvWdy23N-49">
          <mxGeometry relative="1" as="geometry">
            <mxPoint x="416.7906112907144" y="347.093042888474" as="sourcePoint" />
            <mxPoint x="580" y="310" as="targetPoint" />
          </mxGeometry>
        </mxCell>
        <mxCell id="Ux6ZveKq-WMeWvWdy23N-82" value="&amp;lt;&amp;lt;extend&amp;gt;&amp;gt;" style="edgeLabel;resizable=0;html=1;align=center;verticalAlign=middle;" connectable="0" vertex="1" parent="Ux6ZveKq-WMeWvWdy23N-81">
          <mxGeometry relative="1" as="geometry" />
        </mxCell>
        <mxCell id="Ux6ZveKq-WMeWvWdy23N-84" value="" style="endArrow=classic;html=1;rounded=0;entryX=0;entryY=0.5;entryDx=0;entryDy=0;dashed=1;exitX=1;exitY=0.5;exitDx=0;exitDy=0;" edge="1" parent="1" source="Ux6ZveKq-WMeWvWdy23N-53" target="Ux6ZveKq-WMeWvWdy23N-54">
          <mxGeometry relative="1" as="geometry">
            <mxPoint x="426.7906112907144" y="357.093042888474" as="sourcePoint" />
            <mxPoint x="590" y="320" as="targetPoint" />
          </mxGeometry>
        </mxCell>
        <mxCell id="Ux6ZveKq-WMeWvWdy23N-85" value="&amp;lt;&amp;lt;extend&amp;gt;&amp;gt;" style="edgeLabel;resizable=0;html=1;align=center;verticalAlign=middle;" connectable="0" vertex="1" parent="Ux6ZveKq-WMeWvWdy23N-84">
          <mxGeometry relative="1" as="geometry" />
        </mxCell>
        <mxCell id="Ux6ZveKq-WMeWvWdy23N-91" value="" style="group" vertex="1" connectable="0" parent="1">
          <mxGeometry x="620" y="180" width="150.8571428571429" height="100" as="geometry" />
        </mxCell>
        <mxCell id="Ux6ZveKq-WMeWvWdy23N-39" value="" style="ellipse;whiteSpace=wrap;html=1;" vertex="1" parent="Ux6ZveKq-WMeWvWdy23N-91">
          <mxGeometry width="150.85714285714286" height="100.00000000000001" as="geometry" />
        </mxCell>
        <mxCell id="Ux6ZveKq-WMeWvWdy23N-40" value="Przegląd speicialistów zainteresowanych zgłoszeniem" style="text;html=1;strokeColor=none;fillColor=none;align=center;verticalAlign=middle;whiteSpace=wrap;rounded=0;container=1;" vertex="1" parent="Ux6ZveKq-WMeWvWdy23N-91">
          <mxGeometry x="20.42999999999995" y="20.589411764705858" width="110" height="58.82941176470589" as="geometry">
            <mxRectangle x="20" y="40" width="320" height="20" as="alternateBounds" />
          </mxGeometry>
        </mxCell>
        <mxCell id="Ux6ZveKq-WMeWvWdy23N-98" value="" style="group" vertex="1" connectable="0" parent="1">
          <mxGeometry x="240" y="585" width="120" height="80" as="geometry" />
        </mxCell>
        <mxCell id="Ux6ZveKq-WMeWvWdy23N-86" value="" style="ellipse;whiteSpace=wrap;html=1;" vertex="1" parent="Ux6ZveKq-WMeWvWdy23N-98">
          <mxGeometry width="120" height="80" as="geometry" />
        </mxCell>
        <mxCell id="Ux6ZveKq-WMeWvWdy23N-87" value="Przeglądanie zgłoszeń awarii" style="text;html=1;strokeColor=none;fillColor=none;align=center;verticalAlign=middle;whiteSpace=wrap;rounded=0;" vertex="1" parent="Ux6ZveKq-WMeWvWdy23N-98">
          <mxGeometry x="30" y="30" width="60" height="30" as="geometry" />
        </mxCell>
        <mxCell id="Ux6ZveKq-WMeWvWdy23N-99" value="" style="group" vertex="1" connectable="0" parent="1">
          <mxGeometry x="490" y="585" width="120" height="80" as="geometry" />
        </mxCell>
        <mxCell id="Ux6ZveKq-WMeWvWdy23N-88" value="" style="ellipse;whiteSpace=wrap;html=1;" vertex="1" parent="Ux6ZveKq-WMeWvWdy23N-99">
          <mxGeometry width="120" height="80" as="geometry" />
        </mxCell>
        <mxCell id="Ux6ZveKq-WMeWvWdy23N-89" value="Wyświetlanie detali zgłoszenia awrii" style="text;html=1;strokeColor=none;fillColor=none;align=center;verticalAlign=middle;whiteSpace=wrap;rounded=0;" vertex="1" parent="Ux6ZveKq-WMeWvWdy23N-99">
          <mxGeometry x="30" y="25" width="60" height="30" as="geometry" />
        </mxCell>
        <mxCell id="Ux6ZveKq-WMeWvWdy23N-100" value="" style="group" vertex="1" connectable="0" parent="1">
          <mxGeometry x="690" y="650" width="120" height="80" as="geometry" />
        </mxCell>
        <mxCell id="Ux6ZveKq-WMeWvWdy23N-94" value="" style="ellipse;whiteSpace=wrap;html=1;" vertex="1" parent="Ux6ZveKq-WMeWvWdy23N-100">
          <mxGeometry width="120" height="80" as="geometry" />
        </mxCell>
        <mxCell id="Ux6ZveKq-WMeWvWdy23N-95" value="Wybór zgłoszenia" style="text;html=1;strokeColor=none;fillColor=none;align=center;verticalAlign=middle;whiteSpace=wrap;rounded=0;" vertex="1" parent="Ux6ZveKq-WMeWvWdy23N-100">
          <mxGeometry x="30.860000000000014" y="25" width="60" height="30" as="geometry" />
        </mxCell>
        <mxCell id="Ux6ZveKq-WMeWvWdy23N-101" value="" style="endArrow=classic;html=1;rounded=0;dashed=1;" edge="1" parent="1" source="Ux6ZveKq-WMeWvWdy23N-86" target="Ux6ZveKq-WMeWvWdy23N-88">
          <mxGeometry relative="1" as="geometry">
            <mxPoint x="480.0006112907144" y="747.093042888474" as="sourcePoint" />
            <mxPoint x="643.21" y="710" as="targetPoint" />
          </mxGeometry>
        </mxCell>
        <mxCell id="Ux6ZveKq-WMeWvWdy23N-102" value="&amp;lt;&amp;lt;extend&amp;gt;&amp;gt;" style="edgeLabel;resizable=0;html=1;align=center;verticalAlign=middle;" connectable="0" vertex="1" parent="Ux6ZveKq-WMeWvWdy23N-101">
          <mxGeometry relative="1" as="geometry" />
        </mxCell>
        <mxCell id="Ux6ZveKq-WMeWvWdy23N-103" value="" style="endArrow=classic;html=1;rounded=0;dashed=1;" edge="1" parent="1" source="Ux6ZveKq-WMeWvWdy23N-96" target="Ux6ZveKq-WMeWvWdy23N-88">
          <mxGeometry relative="1" as="geometry">
            <mxPoint x="466.7906112907144" y="747.093042888474" as="sourcePoint" />
            <mxPoint x="630" y="710" as="targetPoint" />
          </mxGeometry>
        </mxCell>
        <mxCell id="Ux6ZveKq-WMeWvWdy23N-104" value="&amp;lt;&amp;lt;extend&amp;gt;&amp;gt;" style="edgeLabel;resizable=0;html=1;align=center;verticalAlign=middle;" connectable="0" vertex="1" parent="Ux6ZveKq-WMeWvWdy23N-103">
          <mxGeometry relative="1" as="geometry" />
        </mxCell>
        <mxCell id="Ux6ZveKq-WMeWvWdy23N-105" value="" style="endArrow=classic;html=1;rounded=0;dashed=1;exitX=1;exitY=1;exitDx=0;exitDy=0;" edge="1" parent="1" source="Ux6ZveKq-WMeWvWdy23N-88" target="Ux6ZveKq-WMeWvWdy23N-94">
          <mxGeometry relative="1" as="geometry">
            <mxPoint x="500.0006112907144" y="785.003042888474" as="sourcePoint" />
            <mxPoint x="663.21" y="747.9100000000001" as="targetPoint" />
          </mxGeometry>
        </mxCell>
        <mxCell id="Ux6ZveKq-WMeWvWdy23N-106" value="&amp;lt;&amp;lt;extend&amp;gt;&amp;gt;" style="edgeLabel;resizable=0;html=1;align=center;verticalAlign=middle;" connectable="0" vertex="1" parent="Ux6ZveKq-WMeWvWdy23N-105">
          <mxGeometry relative="1" as="geometry" />
        </mxCell>
        <mxCell id="Ux6ZveKq-WMeWvWdy23N-107" value="" style="endArrow=classic;html=1;rounded=0;dashed=1;" edge="1" parent="1" source="Ux6ZveKq-WMeWvWdy23N-88" target="Ux6ZveKq-WMeWvWdy23N-25">
          <mxGeometry relative="1" as="geometry">
            <mxPoint x="664.0006112907145" y="617.093042888474" as="sourcePoint" />
            <mxPoint x="827.21" y="580" as="targetPoint" />
          </mxGeometry>
        </mxCell>
        <mxCell id="Ux6ZveKq-WMeWvWdy23N-108" value="&amp;lt;&amp;lt;extend&amp;gt;&amp;gt;" style="edgeLabel;resizable=0;html=1;align=center;verticalAlign=middle;" connectable="0" vertex="1" parent="Ux6ZveKq-WMeWvWdy23N-107">
          <mxGeometry relative="1" as="geometry" />
        </mxCell>
        <mxCell id="Ux6ZveKq-WMeWvWdy23N-109" value="" style="group" vertex="1" connectable="0" parent="1">
          <mxGeometry x="240" y="690" width="120" height="80" as="geometry" />
        </mxCell>
        <mxCell id="Ux6ZveKq-WMeWvWdy23N-96" value="" style="ellipse;whiteSpace=wrap;html=1;" vertex="1" parent="Ux6ZveKq-WMeWvWdy23N-109">
          <mxGeometry width="120" height="80" as="geometry" />
        </mxCell>
        <mxCell id="Ux6ZveKq-WMeWvWdy23N-97" value="Przegląd zleceń specialisty" style="text;html=1;strokeColor=none;fillColor=none;align=center;verticalAlign=middle;whiteSpace=wrap;rounded=0;" vertex="1" parent="Ux6ZveKq-WMeWvWdy23N-109">
          <mxGeometry x="30" y="25" width="60" height="30" as="geometry" />
        </mxCell>
        <mxCell id="Ux6ZveKq-WMeWvWdy23N-114" value="" style="endArrow=none;html=1;rounded=0;entryX=-0.014;entryY=0.491;entryDx=0;entryDy=0;entryPerimeter=0;" edge="1" parent="1" target="Ux6ZveKq-WMeWvWdy23N-53">
          <mxGeometry width="50" height="50" relative="1" as="geometry">
            <mxPoint x="190" y="429" as="sourcePoint" />
            <mxPoint x="340" y="450" as="targetPoint" />
          </mxGeometry>
        </mxCell>
        <mxCell id="Ux6ZveKq-WMeWvWdy23N-115" style="edgeStyle=orthogonalEdgeStyle;rounded=0;orthogonalLoop=1;jettySize=auto;html=1;endArrow=none;endFill=0;" edge="1" parent="1" source="Ux6ZveKq-WMeWvWdy23N-19">
          <mxGeometry relative="1" as="geometry">
            <mxPoint x="190" y="520" as="targetPoint" />
          </mxGeometry>
        </mxCell>
        <mxCell id="Ux6ZveKq-WMeWvWdy23N-116" style="edgeStyle=orthogonalEdgeStyle;rounded=0;orthogonalLoop=1;jettySize=auto;html=1;endArrow=none;endFill=0;" edge="1" parent="1" source="Ux6ZveKq-WMeWvWdy23N-86" target="Ux6ZveKq-WMeWvWdy23N-3">
          <mxGeometry relative="1" as="geometry">
            <Array as="points">
              <mxPoint x="200" y="625" />
              <mxPoint x="200" y="670" />
            </Array>
          </mxGeometry>
        </mxCell>
        <mxCell id="Ux6ZveKq-WMeWvWdy23N-117" style="edgeStyle=orthogonalEdgeStyle;rounded=0;orthogonalLoop=1;jettySize=auto;html=1;endArrow=none;endFill=0;" edge="1" parent="1" source="Ux6ZveKq-WMeWvWdy23N-96">
          <mxGeometry relative="1" as="geometry">
            <mxPoint x="200" y="670" as="targetPoint" />
          </mxGeometry>
        </mxCell>
      </root>
    </mxGraphModel>
  </diagram>
</mxfile>
